<svg version="1.2" xmlns="http://www.w3.org/2000/svg" viewBox="0 0 800 800" width="800" height="800">
	<title>logo</title>
	<style>
		.s0 { fill: #000000 } 
		.s1 { fill: #ffffff } 
	</style>
	<g id="iconmonstr-caret-right-filled">
		<path id="Path 0" class="s0" d="m365 1.1c-1.9 0.4-10.9 1.7-20 2.9-9.1 1.2-23.5 3.7-32 5.6-8.5 1.8-22.9 5.7-32 8.5-9.1 2.8-22.1 7.3-29 10.1-6.9 2.8-18.3 7.8-25.5 11.2-7.2 3.5-17.9 9.1-24 12.6-6.1 3.5-15.9 9.6-22 13.5-6.1 4-15.5 10.6-21 14.7-5.5 4.1-14.9 11.8-21 17-6.1 5.2-17.5 16.2-25.5 24.4-8 8.2-19.4 21-25.3 28.4-6 7.4-15 19.8-20.1 27.5-5.2 7.7-12.7 19.9-16.7 27-4 7.2-10.3 19.5-14 27.5-3.7 8-9 20.8-11.9 28.5-2.9 7.7-7.2 20.8-9.5 29-2.4 8.3-5.4 20.6-6.8 27.5-1.5 6.9-3.5 19.3-4.6 27.5-1.2 8.3-2.5 18.4-3.1 22.5-0.6 4.1-1 19.3-1 33.8 0 14.4 0.5 29.2 1 33 0.6 3.7 2 13.5 3.1 21.7 1.1 8.3 3.1 20.6 4.6 27.5 1.4 6.9 4.4 19.3 6.8 27.5 2.3 8.3 6.6 21.3 9.5 29 2.9 7.7 8.2 20.5 11.9 28.5 3.7 8 10 20.4 14 27.5 4 7.1 11.5 19.3 16.7 27 5.1 7.7 14.1 20.1 20 27.5 6 7.4 18.9 21.6 28.9 31.6 9.9 10 22.7 22 28.5 26.8 5.8 4.8 15.4 12.2 21.5 16.5 6.1 4.3 15.3 10.5 20.5 13.8 5.2 3.3 14.4 8.8 20.5 12.1 6.1 3.4 17.3 9.1 25 12.6 7.7 3.5 20.1 8.6 27.5 11.4 7.4 2.8 20.5 7.1 29 9.5 8.5 2.5 21.1 5.6 28 7.1 6.9 1.4 19.7 3.5 28.5 4.6 8.8 1.2 17.9 2.5 20.3 3 2.3 0.6 17.7 1 34.2 1 16.5 0 31.9-0.4 34.3-1 2.3-0.5 10.3-1.7 17.7-2.6 7.4-0.9 20.9-3.1 30-4.9 9.1-1.9 24.1-5.7 33.5-8.5 9.4-2.8 23.3-7.6 31-10.7 7.7-3 19.9-8.3 27-11.7 7.1-3.4 18-9.1 24-12.6 6-3.5 16-9.6 22-13.5 6-4 15.5-10.6 21-14.7 5.5-4.1 15-11.8 21-17 6-5.2 17.5-16.2 25.5-24.4 8-8.2 19.4-21 25.3-28.4 6-7.4 15-19.8 20.1-27.5 5.2-7.7 12.7-19.9 16.7-27 4-7.1 10.3-19.5 14-27.5 3.7-8 9-20.8 11.9-28.5 2.9-7.7 7.2-20.7 9.5-29 2.4-8.2 5.7-22 7.4-30.5 1.6-8.5 3.7-21.1 4.6-28 0.8-6.9 2-15.5 2.5-19.2 0.6-3.8 1-18.8 1-33.5 0-14.8-0.5-29.5-1-32.8-0.5-3.3-1.7-11.6-2.5-18.5-0.9-6.9-3-19.5-4.6-28-1.7-8.5-5-22.3-7.4-30.5-2.3-8.3-6.6-21.3-9.5-29-2.9-7.7-8.2-20.5-11.9-28.5-3.7-8-10-20.3-14-27.5-4-7.2-11.5-19.3-16.7-27-5.1-7.7-14.1-20.1-20.1-27.5-5.9-7.4-17.3-20.2-25.3-28.4-8-8.2-19.5-19.2-25.5-24.4-6-5.2-15.5-12.9-21-17-5.5-4.1-15-10.7-21-14.7-6-3.9-16-10-22-13.5-6-3.5-16.9-9.1-24-12.6-7.1-3.4-18.6-8.4-25.5-11.2-6.9-2.8-19.9-7.3-29-10.1-9.1-2.8-23.5-6.7-32-8.5-8.5-1.9-22.9-4.4-32-5.6-9.1-1.1-18.4-2.5-20.7-3-2.4-0.6-18.1-0.9-35-0.9-17 0.1-32.4 0.5-34.3 1z"/>
		<path id="Path 1" class="s1" d="m311 215.9c-1.9 0.4-5.5 1.8-8 3.2-2.5 1.5-6 4.4-7.8 6.5-1.7 2.1-3.9 5.9-4.7 8.4-1.3 3.9-1.5 24.5-1.5 165.3 0 109.7 0.3 162 1.1 164.9 0.5 2.4 2.6 6.4 4.5 9 2 2.8 5.6 6 8.7 7.8 4.6 2.6 6.1 3 13.5 3 6.1 0 9.1-0.5 12-1.9 2-1.1 4.6-2.8 5.7-3.8 1.1-1.1 5.4-4.4 9.5-7.5 4.1-3.1 10-7.6 13.1-10 3.1-2.4 9.4-7.2 14-10.8 4.6-3.5 9.1-7 9.9-7.7 0.8-0.6 4-3.1 7-5.6 3-2.4 11.8-9.1 19.5-15 7.7-5.8 18.9-14.4 25-19.1 6.1-4.7 16.4-12.8 23-18 6.6-5.2 14-10.9 16.5-12.7 2.5-1.8 4.7-3.5 5-3.8 0.3-0.3 3.2-2.6 6.5-5.1 3.3-2.5 6.9-5.2 8-6.2 1.1-0.9 6.7-5.3 12.5-9.8 5.8-4.4 11.8-9.1 13.4-10.3 1.6-1.2 7.2-5.6 12.5-9.7 5.3-4.2 10.8-9.1 12.2-11 1.5-1.9 3.4-5.6 4.3-8.3 0.9-2.6 1.6-5.9 1.6-7.5 0-1.5-0.8-5.4-1.8-8.7-1.2-4.1-2.9-7.2-5.7-10.1-2.2-2.4-11.2-9.8-20-16.5-8.8-6.8-29.5-22.7-46-35.4-16.5-12.7-37.2-28.7-46-35.5-8.8-6.8-17.8-13.7-20-15.4-2.2-1.7-4.2-3.4-4.5-3.7-0.3-0.3-3.2-2.6-6.5-5-3.3-2.4-10.1-7.5-15-11.4-5-3.8-9.2-7.2-9.5-7.5-0.3-0.3-9.3-7.3-20-15.5-10.7-8.2-21.3-15.9-23.5-17.1-2.2-1.2-6.5-2.4-9.5-2.7-3-0.3-7.1-0.2-9 0.2z"/>
	</g>
</svg>